<svg width="243" height="76" viewBox="0 0 243 76" fill="none" xmlns="http://www.w3.org/2000/svg">
<path d="M60.045 32.5947V45.4587C60.045 46.3547 60.253 47.0107 60.669 47.4267C61.117 47.8107 61.853 48.0027 62.877 48.0027H65.997V53.6667H61.773C56.109 53.6667 53.277 50.9147 53.277 45.4107V32.5947H50.109V27.0747H53.277V20.4987H60.045V27.0747H65.997V32.5947H60.045ZM75.8224 40.2747C75.8224 37.5867 76.3504 35.2027 77.4064 33.1227C78.4944 31.0427 79.9504 29.4427 81.7744 28.3227C83.6304 27.2027 85.6944 26.6427 87.9664 26.6427C89.9504 26.6427 91.6784 27.0427 93.1504 27.8427C94.6544 28.6427 95.8544 29.6507 96.7504 30.8667V27.0747H103.518V53.6667H96.7504V49.7787C95.8864 51.0267 94.6864 52.0667 93.1504 52.8987C91.6464 53.6987 89.9024 54.0987 87.9184 54.0987C85.6784 54.0987 83.6304 53.5227 81.7744 52.3707C79.9504 51.2187 78.4944 49.6027 77.4064 47.5227C76.3504 45.4107 75.8224 42.9947 75.8224 40.2747ZM96.7504 40.3707C96.7504 38.7387 96.4304 37.3467 95.7904 36.1947C95.1504 35.0107 94.2864 34.1147 93.1984 33.5067C92.1104 32.8667 90.9424 32.5467 89.6944 32.5467C88.4464 32.5467 87.2944 32.8507 86.2384 33.4587C85.1824 34.0667 84.3184 34.9627 83.6464 36.1467C83.0064 37.2987 82.6864 38.6747 82.6864 40.2747C82.6864 41.8747 83.0064 43.2827 83.6464 44.4987C84.3184 45.6827 85.1824 46.5947 86.2384 47.2347C87.3264 47.8747 88.4784 48.1947 89.6944 48.1947C90.9424 48.1947 92.1104 47.8907 93.1984 47.2827C94.2864 46.6427 95.1504 45.7467 95.7904 44.5947C96.4304 43.4107 96.7504 42.0027 96.7504 40.3707ZM126.978 54.0987C124.802 54.0987 122.85 53.7147 121.122 52.9467C119.394 52.1467 118.018 51.0747 116.994 49.7307C116.002 48.3867 115.458 46.8987 115.362 45.2667H122.13C122.258 46.2907 122.754 47.1387 123.618 47.8107C124.514 48.4827 125.618 48.8187 126.93 48.8187C128.21 48.8187 129.202 48.5627 129.906 48.0507C130.642 47.5387 131.01 46.8827 131.01 46.0827C131.01 45.2187 130.562 44.5787 129.666 44.1627C128.802 43.7147 127.41 43.2347 125.49 42.7227C123.506 42.2427 121.874 41.7467 120.594 41.2347C119.346 40.7227 118.258 39.9387 117.33 38.8827C116.434 37.8267 115.986 36.4027 115.986 34.6107C115.986 33.1387 116.402 31.7947 117.234 30.5787C118.098 29.3627 119.314 28.4027 120.882 27.6987C122.482 26.9947 124.354 26.6427 126.498 26.6427C129.666 26.6427 132.194 27.4427 134.082 29.0427C135.97 30.6107 137.01 32.7387 137.202 35.4267H130.77C130.674 34.3707 130.226 33.5387 129.426 32.9307C128.658 32.2907 127.618 31.9707 126.306 31.9707C125.09 31.9707 124.146 32.1947 123.474 32.6427C122.834 33.0907 122.514 33.7147 122.514 34.5147C122.514 35.4107 122.962 36.0987 123.858 36.5787C124.754 37.0267 126.146 37.4907 128.034 37.9707C129.954 38.4507 131.538 38.9467 132.786 39.4587C134.034 39.9707 135.106 40.7707 136.002 41.8587C136.93 42.9147 137.41 44.3227 137.442 46.0827C137.442 47.6187 137.01 48.9947 136.146 50.2107C135.314 51.4267 134.098 52.3867 132.498 53.0907C130.93 53.7627 129.09 54.0987 126.978 54.0987ZM165.422 53.6667L156.398 42.3387V53.6667H149.678V18.1467H156.398V38.3547L165.326 27.0747H174.062L162.35 40.4187L174.158 53.6667H165.422ZM187.837 23.9067C186.653 23.9067 185.661 23.5387 184.861 22.8027C184.093 22.0347 183.709 21.0907 183.709 19.9707C183.709 18.8507 184.093 17.9227 184.861 17.1867C185.661 16.4187 186.653 16.0347 187.837 16.0347C189.021 16.0347 189.997 16.4187 190.765 17.1867C191.565 17.9227 191.965 18.8507 191.965 19.9707C191.965 21.0907 191.565 22.0347 190.765 22.8027C189.997 23.5387 189.021 23.9067 187.837 23.9067ZM191.149 27.0747V53.6667H184.429V27.0747H191.149ZM229.229 39.7947C229.229 40.7547 229.165 41.6187 229.037 42.3867H209.597C209.757 44.3067 210.429 45.8107 211.613 46.8987C212.797 47.9867 214.253 48.5307 215.981 48.5307C218.477 48.5307 220.253 47.4587 221.309 45.3147H228.557C227.789 47.8747 226.317 49.9867 224.141 51.6507C221.965 53.2827 219.293 54.0987 216.125 54.0987C213.565 54.0987 211.261 53.5387 209.213 52.4187C207.197 51.2667 205.613 49.6507 204.461 47.5707C203.341 45.4907 202.781 43.0907 202.781 40.3707C202.781 37.6187 203.341 35.2027 204.461 33.1227C205.581 31.0427 207.149 29.4427 209.165 28.3227C211.181 27.2027 213.501 26.6427 216.125 26.6427C218.653 26.6427 220.909 27.1867 222.893 28.2747C224.909 29.3627 226.461 30.9147 227.549 32.9307C228.669 34.9147 229.229 37.2027 229.229 39.7947ZM222.269 37.8747C222.237 36.1467 221.613 34.7707 220.397 33.7467C219.181 32.6907 217.693 32.1627 215.933 32.1627C214.269 32.1627 212.861 32.6747 211.709 33.6987C210.589 34.6907 209.901 36.0827 209.645 37.8747H222.269Z" fill="white"/>
<path d="M33.6731 25.9167L15.3508 48.375L7.02252 38.1667" stroke="white" stroke-width="2" stroke-linecap="round" stroke-linejoin="round"/>
</svg>
